<svg xmlns="http://www.w3.org/2000/svg" height="24px" viewBox="0 -960 960 960" width="24px" fill="#E0E0E0"><path d="M740-560h140v80h-80v220q0 42-29 71t-71 29q-42 0-71-29t-29-71q0-42 29-71t71-29q8 0 18 1.5t22 6.5v-208ZM120-160v-112q0-35 17.5-63t46.5-43q62-31 126-46.5T440-440q42 0 83.5 6.5T607-414q-20 12-36 29t-28 37q-26-6-51.5-9t-51.5-3q-57 0-112 14t-108 40q-9 5-14.5 14t-5.5 20v32h321q2 20 9.5 40t20.5 40H120Zm207-367q-47-47-47-113t47-113q47-47 113-47t113 47q47 47 47 113t-47 113q-47 47-113 47t-113-47Zm169.5-56.5Q520-607 520-640t-23.5-56.5Q473-720 440-720t-56.5 23.5Q360-673 360-640t23.5 56.5Q407-560 440-560t56.5-23.5ZM440-640Zm0 400Z"/></svg>